<?xml version="1.0" encoding="UTF-8"?>
<svg width="51px" height="47px" viewBox="0 0 51 47" version="1.1" xmlns="http://www.w3.org/2000/svg" xmlns:xlink="http://www.w3.org/1999/xlink">
    <!-- Generator: Sketch 52.6 (67491) - http://www.bohemiancoding.com/sketch -->
    <title>logo</title>
    <desc>Created with Sketch.</desc>
    <g id="Page-1" stroke="none" stroke-width="1" fill="none" fill-rule="evenodd">
        <g id="Macbook-Half-Size" transform="translate(-612.000000, -17.000000)">
            <g id="logo" transform="translate(613.000000, 12.000000)">
                <path d="M19,12 C8.50658975,12 0,20.5065898 0,31 C0,41.4934102 8.50658975,50 19,50 C29.4934102,50 38,41.4934102 38,31" id="Path" stroke="#FFFFFF" stroke-width="2" stroke-linecap="round"></path>
                <path d="M0,33 C0,42.9411255 8.50658975,51 19,51 C29.4934102,51 38,42.9411255 38,33" id="Path" stroke="#FFFFFF" stroke-width="2" stroke-linecap="round"></path>
                <path d="M20.7024247,33.2074399 C22.7861741,33.735263 24.5978523,34.1031181 26.1374593,34.3110051 C27.6770662,34.5188921 30.0397415,34.8800421 33.225485,35.394455 C29.2355772,36.6048841 26.1614381,37.4686551 24.0030675,37.9857678 C21.844697,38.5028806 18.7784077,38.9419637 14.8041997,39.3030171 C18.0346766,37.9963088 20.0007516,36.9803793 20.7024247,36.2552285 C21.4040978,35.5300777 21.4040978,34.5141482 20.7024247,33.2074399 Z" id="Path" fill="#FFFFFF" transform="translate(24.014842, 36.255229) rotate(-40.000000) translate(-24.014842, -36.255229) "></path>
                <path d="M11.5068105,21.4516867 C13.5905599,21.9795098 15.402238,22.3473648 16.941845,22.5552519 C18.481452,22.7631389 20.8331991,23.0393766 23.9970865,23.383965 C20.0290349,24.7642186 16.9658238,25.7129018 14.8074533,26.2300146 C12.6490827,26.7471274 9.58279348,27.1862105 5.60858547,27.5472639 C8.83906238,26.2405556 10.8051374,25.2246261 11.5068105,24.4994753 C12.2084835,23.7743245 12.2084835,22.758395 11.5068105,21.4516867 Z" id="Path" fill="#FFFFFF" transform="translate(14.802836, 24.499475) scale(1, -1) rotate(43.000000) translate(-14.802836, -24.499475) "></path>
                <path d="M6.51386934,20.8471717 C19.5548341,16.8106066 29.3657268,14.792324 35.9465476,14.792324 C42.5273683,14.792324 49.0631934,16.8106066 55.5540228,20.8471717 C49.031283,24.6188011 42.4954579,26.5046157 35.9465476,26.5046157 C29.3976372,26.5046157 19.5867445,24.6188011 6.51386934,20.8471717 Z" id="Path-2" fill="#FFFFFF" transform="translate(31.033946, 20.648470) rotate(-40.000000) translate(-31.033946, -20.648470) "></path>
            </g>
        </g>
    </g>
</svg>